<svg width="441" height="513" viewBox="0 0 441 513" fill="none" xmlns="http://www.w3.org/2000/svg">
<path d="M220.5 512.979C342.279 512.979 441 456.898 441 387.718C441 318.538 342.279 262.457 220.5 262.457C98.7212 262.457 0 318.538 0 387.718C0 456.898 98.7212 512.979 220.5 512.979Z" fill="#CCD6EB"/>
<path d="M312.259 466.697L147.664 371.66C146.216 370.825 145.014 369.624 144.177 368.178C143.341 366.731 142.901 365.089 142.901 363.418C142.901 361.747 143.341 360.106 144.177 358.659C145.014 357.212 146.216 356.011 147.664 355.177L163.901 344.938C166.704 343.324 169.881 342.474 173.116 342.474C176.35 342.474 179.528 343.324 182.331 344.938L346.948 439.986C348.396 440.82 349.598 442.021 350.434 443.468C351.271 444.915 351.711 446.557 351.711 448.228C351.711 449.899 351.271 451.54 350.434 452.987C349.598 454.434 348.396 455.635 346.948 456.469L330.711 466.697C327.907 468.32 324.724 469.174 321.485 469.174C318.245 469.174 315.063 468.32 312.259 466.697Z" fill="#CCD6EB"/>
<path d="M61.9929 380.053C81.7198 380.053 97.7116 370.869 97.7116 359.541C97.7116 348.213 81.7198 339.03 61.9929 339.03C42.2661 339.03 26.2743 348.213 26.2743 359.541C26.2743 370.869 42.2661 380.053 61.9929 380.053Z" fill="#CCD6EB"/>
<path d="M370.626 384.752L386.292 393.76C386.292 393.76 378.291 368.616 382.554 343.271C384.166 333.692 387.623 328.936 388.832 326.374C390.041 323.811 399.407 307.977 391.07 300.726C382.733 293.475 363.341 308.056 364.393 347.075C364.871 359.847 366.965 372.507 370.626 384.752Z" fill="#003399"/>
<path opacity="0.5" d="M370.626 384.752L386.292 393.76C386.292 393.76 378.291 368.616 382.554 343.271C384.166 333.692 387.623 328.936 388.832 326.374C390.041 323.811 399.407 307.977 391.07 300.726C382.733 293.475 363.341 308.056 364.393 347.075C364.871 359.847 366.965 372.507 370.626 384.752Z" fill="black"/>
<path d="M377.911 389.497C377.797 389.499 377.685 389.466 377.59 389.402C377.496 389.338 377.424 389.246 377.385 389.139C377.329 388.971 371.342 372.611 371.532 346.315C371.722 320.018 385.542 305.739 385.676 305.605C385.728 305.553 385.79 305.511 385.859 305.483C385.927 305.454 386 305.44 386.074 305.44C386.148 305.44 386.221 305.454 386.289 305.483C386.357 305.511 386.419 305.553 386.471 305.605C386.523 305.657 386.565 305.719 386.593 305.787C386.622 305.855 386.636 305.929 386.636 306.002C386.636 306.076 386.622 306.149 386.593 306.218C386.565 306.286 386.523 306.348 386.471 306.4C386.337 306.534 372.841 320.387 372.651 346.326C372.461 372.264 378.369 388.602 378.436 388.758C378.487 388.898 378.48 389.052 378.417 389.186C378.354 389.32 378.24 389.424 378.101 389.475C378.039 389.494 377.975 389.501 377.911 389.497Z" fill="white"/>
<path d="M377.161 388.602L398.579 400.911C400.81 402.23 403.457 402.66 405.991 402.114C408.526 401.569 410.761 400.088 412.253 397.968C413.67 395.762 414.269 393.128 413.942 390.526C412.913 379.404 408.079 376.841 413.998 371.884C419.918 366.927 421.462 366.58 421.127 361.813C420.791 357.046 417.535 354.964 415.99 353.085C414.446 351.205 410.171 347.266 413.081 341.447C415.99 335.628 419.963 329.999 413.942 327.426C410.35 325.882 404.364 327.94 400.425 332.215C396.486 336.49 393.241 339.567 389.47 340.596C385.699 341.626 377.843 341.794 378.179 348.295C378.515 354.797 380.238 357.023 378.694 359.922C375.784 365.338 363.128 368.415 377.161 388.602Z" fill="#003399"/>
<path d="M387.747 395.226C387.607 395.222 387.474 395.167 387.371 395.073C387.268 394.978 387.203 394.85 387.187 394.711C387.187 394.331 383.897 355.927 410.306 330.369C410.415 330.279 410.553 330.233 410.694 330.242C410.835 330.25 410.968 330.311 411.066 330.413C411.163 330.515 411.219 330.65 411.221 330.791C411.223 330.933 411.172 331.069 411.078 331.174C385.05 356.363 388.272 394.23 388.306 394.611C388.319 394.758 388.273 394.903 388.178 395.016C388.084 395.129 387.949 395.201 387.803 395.215L387.747 395.226Z" fill="white"/>
<path d="M391.988 362.171C391.847 362.171 391.711 362.119 391.607 362.023C391.503 361.928 391.439 361.797 391.428 361.656C391.194 358.68 390.356 355.783 388.965 353.141C387.574 350.5 385.659 348.169 383.338 346.292C383.277 346.25 383.226 346.196 383.186 346.133C383.147 346.071 383.12 346.001 383.107 345.928C383.095 345.856 383.097 345.781 383.113 345.709C383.13 345.637 383.16 345.569 383.203 345.509C383.245 345.449 383.298 345.397 383.359 345.358C383.421 345.319 383.489 345.292 383.561 345.279C383.633 345.267 383.707 345.269 383.778 345.285C383.849 345.302 383.916 345.332 383.975 345.375C386.449 347.336 388.489 349.79 389.964 352.582C391.44 355.373 392.319 358.44 392.547 361.589C392.56 361.739 392.512 361.887 392.416 362.002C392.32 362.118 392.182 362.19 392.032 362.204L391.988 362.171Z" fill="white"/>
<path d="M390.164 368.762C390.028 368.763 389.897 368.716 389.794 368.628C389.683 368.529 389.615 368.39 389.605 368.242C389.594 368.093 389.642 367.947 389.738 367.833C390.007 367.52 396.62 360.224 412.118 362.16C412.265 362.179 412.398 362.256 412.489 362.374C412.579 362.491 412.619 362.64 412.6 362.786C412.58 362.934 412.504 363.068 412.387 363.16C412.269 363.252 412.121 363.295 411.973 363.279C397.09 361.41 390.634 368.505 390.566 368.572C390.516 368.629 390.454 368.675 390.384 368.708C390.315 368.74 390.24 368.759 390.164 368.762Z" fill="white"/>
<path d="M307.245 455.339L162.491 371.761C152.274 365.863 143.994 350.041 143.994 336.422V26.458C143.994 12.8397 152.274 6.58444 162.491 12.4816L307.245 96.0601C317.462 101.957 325.742 117.78 325.742 131.398V441.363C325.742 454.97 317.462 461.236 307.245 455.339Z" fill="#455A64"/>
<path d="M323.918 86.3137L179.153 2.73523C174.789 0.217468 170.783 -0.0734743 167.616 1.47075C167.228 1.66491 166.854 1.8855 166.497 2.13097L150.271 11.5642C153.539 9.60592 157.813 9.75139 162.502 12.4594L307.256 96.0379C317.473 101.935 325.754 117.758 325.754 131.376V441.341C325.754 448.547 323.437 453.65 319.745 456.067L335.758 446.745C339.842 444.575 342.472 439.259 342.472 431.639V121.674C342.472 108.034 334.135 92.2109 323.918 86.3137Z" fill="#37474F"/>
<path d="M325.742 131.376V441.341C325.742 448.547 323.426 453.65 319.733 456.067L335.758 446.746C339.842 444.575 342.472 439.259 342.472 431.639V121.675L325.798 131.354L325.742 131.376Z" fill="#263238"/>
<path d="M342.416 145.722L325.742 155.345V162.865L342.416 153.23V145.722Z" fill="#37474F"/>
<path d="M335.109 195.73C333.62 196.592 332.412 195.674 332.412 193.694V177.524C332.427 176.513 332.679 175.52 333.147 174.624C333.615 173.728 334.287 172.955 335.109 172.365C336.597 171.504 337.805 172.365 337.805 174.402V190.572C337.79 191.582 337.538 192.576 337.07 193.472C336.602 194.367 335.93 195.141 335.109 195.73Z" fill="#37474F"/>
<path d="M332.401 193.739V177.524C332.416 176.513 332.667 175.52 333.136 174.624C333.604 173.729 334.276 172.955 335.097 172.366C335.343 172.194 335.629 172.089 335.927 172.062C336.225 172.034 336.526 172.085 336.798 172.209L334.773 171.168C334.496 171.035 334.189 170.977 333.882 171.001C333.575 171.024 333.281 171.128 333.027 171.303C332.205 171.892 331.532 172.665 331.062 173.561C330.592 174.457 330.337 175.45 330.319 176.461V192.62C330.277 193.028 330.339 193.44 330.5 193.818C330.66 194.195 330.914 194.526 331.237 194.779L333.352 195.898C333.015 195.656 332.749 195.328 332.582 194.948C332.415 194.568 332.352 194.151 332.401 193.739Z" fill="#455A64"/>
<path d="M335.109 234.862C333.62 235.724 332.412 234.862 332.412 232.825V216.656C332.428 215.645 332.68 214.652 333.148 213.756C333.616 212.861 334.288 212.087 335.109 211.497C336.597 210.635 337.805 211.497 337.805 213.545V229.703C337.792 230.714 337.541 231.708 337.072 232.604C336.604 233.501 335.931 234.274 335.109 234.862Z" fill="#37474F"/>
<path d="M332.401 232.825V216.655C332.417 215.645 332.669 214.652 333.137 213.756C333.605 212.86 334.277 212.087 335.097 211.497C335.344 211.328 335.63 211.225 335.928 211.198C336.225 211.17 336.525 211.219 336.798 211.34L334.773 210.288C334.497 210.149 334.189 210.088 333.881 210.112C333.574 210.135 333.278 210.243 333.027 210.423C332.203 211.01 331.529 211.783 331.058 212.679C330.588 213.575 330.335 214.569 330.319 215.581V231.784C330.276 232.193 330.338 232.605 330.498 232.983C330.659 233.361 330.913 233.692 331.237 233.944L333.352 235.063C333.001 234.815 332.727 234.474 332.559 234.079C332.391 233.684 332.336 233.25 332.401 232.825Z" fill="#455A64"/>
<path d="M302.187 104.755L159.939 22.5976C159.346 22.2561 158.673 22.0757 157.988 22.0745C157.303 22.0732 156.63 22.2511 156.035 22.5904C155.44 22.9297 154.944 23.4187 154.597 24.0088C154.249 24.599 154.062 25.2698 154.053 25.9546V336.423C154.053 346.785 161.405 359.508 170.38 364.689L309.136 444.843C309.794 445.222 310.54 445.421 311.3 445.42C312.059 445.419 312.805 445.219 313.462 444.84C314.119 444.46 314.665 443.914 315.045 443.257C315.425 442.599 315.626 441.854 315.627 441.094V128.064C315.683 119.515 309.618 109.03 302.187 104.755Z" fill="#003399"/>
<path opacity="0.9" d="M302.187 104.755L159.939 22.5976C159.346 22.2561 158.673 22.0757 157.988 22.0745C157.303 22.0732 156.63 22.2511 156.035 22.5904C155.44 22.9297 154.944 23.4187 154.597 24.0088C154.249 24.599 154.062 25.2698 154.053 25.9546V336.423C154.053 346.785 161.405 359.508 170.38 364.689L309.136 444.843C309.794 445.222 310.54 445.421 311.3 445.42C312.059 445.419 312.805 445.219 313.462 444.84C314.119 444.46 314.665 443.914 315.045 443.257C315.425 442.599 315.626 441.854 315.627 441.094V128.064C315.683 119.515 309.618 109.03 302.187 104.755Z" fill="white"/>
<path d="M202.484 44.0491L204.688 53.3256L251.843 80.5175L259.99 76.1757L202.484 44.0491Z" fill="#455A64"/>
<path d="M216.348 53.0125C216.348 54.5568 215.23 55.1722 213.931 54.4113C213.235 53.9487 212.656 53.329 212.242 52.6022C211.828 51.8754 211.59 51.0616 211.548 50.2262C211.548 48.6932 212.667 48.0665 213.965 48.8387C214.662 49.2989 215.24 49.9164 215.654 50.6415C216.068 51.3665 216.306 52.1787 216.348 53.0125Z" fill="#263238"/>
<path d="M248.117 72.6503C247.859 72.6483 247.605 72.5829 247.378 72.4601L223.298 59.032C222.958 58.8323 222.709 58.5076 222.605 58.1273C222.501 57.7469 222.55 57.341 222.742 56.9962C222.933 56.6515 223.252 56.3952 223.629 56.2822C224.007 56.1691 224.414 56.2082 224.763 56.3912L248.856 69.8192C249.148 69.982 249.379 70.2375 249.511 70.5456C249.642 70.8537 249.668 71.1968 249.583 71.521C249.499 71.8452 249.309 72.1321 249.043 72.3365C248.778 72.541 248.452 72.6514 248.117 72.6503Z" fill="#263238"/>
<path d="M183.886 87.2087C182.42 86.3583 181.357 87.0968 181.357 88.9655C181.357 89.9 181.588 90.8201 182.029 91.6439C182.47 92.4677 183.108 93.1698 183.886 93.6877C184.303 93.9406 184.781 94.0744 185.268 94.0744C185.755 94.0744 186.233 93.9406 186.65 93.6877L188.989 97.9176C188.166 98.3716 187.233 98.5879 186.295 98.5425C185.356 98.497 184.449 98.1916 183.674 97.6602C181.774 96.4978 180.189 94.8849 179.061 92.9643C177.933 91.0438 177.296 88.8748 177.206 86.6492C177.206 82.4977 179.992 81.0542 183.83 83.2922C185.998 84.6879 187.773 86.6137 188.989 88.8872L186.65 90.7447C186.073 89.3332 185.117 88.1092 183.886 87.2087Z" fill="#003399"/>
<path d="M202.45 101.23C202.45 105.415 199.619 106.825 195.736 104.587C193.782 103.419 192.147 101.787 190.975 99.8345C189.804 97.8823 189.133 95.671 189.022 93.3971C189.022 89.212 191.853 87.8021 195.736 90.0401C197.695 91.2027 199.335 92.834 200.507 94.7873C201.679 96.7406 202.347 98.9546 202.45 101.23ZM193.174 95.8925C193.194 96.8533 193.441 97.7956 193.896 98.642C194.352 99.4883 195.002 100.214 195.792 100.76C197.18 101.566 198.299 100.76 198.299 98.8579C198.295 97.9187 198.065 96.9943 197.629 96.1627C197.193 95.331 196.563 94.6166 195.792 94.0797C194.382 93.2628 193.174 93.9566 193.174 95.8925Z" fill="#003399"/>
<path d="M206.96 96.7879L211.794 106.859V99.6078L215.453 101.723V115.833L212.096 113.886L207.285 103.905V111.111L203.603 108.985V94.8408L206.96 96.7879Z" fill="#003399"/>
<path d="M227.415 108.593V112.286L223.924 110.272V120.701L219.885 118.362V107.933L216.416 105.93V102.249L227.415 108.593Z" fill="#003399"/>
<path d="M235.293 125.266L230.705 122.614L230.079 124.248L225.938 121.853L231.097 110.719L235.249 113.114L240.217 130.1L235.909 127.616L235.293 125.266ZM234.297 121.35L233.044 116.527L231.757 119.884L234.297 121.35Z" fill="#003399"/>
<path d="M246.629 123.431C245.163 122.592 244.1 123.319 244.1 125.199C244.102 126.133 244.334 127.053 244.775 127.876C245.216 128.7 245.852 129.402 246.629 129.921C247.048 130.172 247.528 130.304 248.016 130.304C248.505 130.304 248.984 130.172 249.404 129.921L251.743 134.151C250.916 134.6 249.983 134.813 249.043 134.768C248.104 134.723 247.195 134.42 246.416 133.894C244.515 132.73 242.93 131.116 241.801 129.193C240.673 127.27 240.037 125.099 239.948 122.872C239.948 118.72 242.746 117.277 246.573 119.515C248.738 120.917 250.515 122.841 251.743 125.11L249.404 126.956C248.814 125.552 247.855 124.334 246.629 123.431Z" fill="#003399"/>
<path d="M262.776 129.015V132.697L259.285 130.682V141.145L255.245 138.806V128.377L251.776 126.374V122.693L262.776 129.015Z" fill="#003399"/>
<path d="M274.716 146.337C275.712 146.908 276.473 146.46 276.473 145.061V136.926L280.523 139.254V147.389C280.523 151.137 278.285 152.256 274.705 150.209C272.98 149.251 271.529 147.866 270.493 146.187C269.456 144.507 268.868 142.59 268.785 140.619V132.484L272.836 134.822V142.958C272.852 143.631 273.031 144.291 273.358 144.879C273.686 145.468 274.152 145.968 274.716 146.337Z" fill="#003399"/>
<path d="M287.047 146.382C286.588 146.125 286.298 146.113 286.298 146.539C286.298 148.307 292.62 150.858 292.62 155.972C292.62 159.105 290.236 159.116 287.484 157.527C285.064 156.045 282.979 154.074 281.363 151.742L282.862 149.101C284.093 151.006 285.672 152.662 287.517 153.98C288.11 154.327 288.491 154.327 288.491 153.823C288.491 151.988 282.157 149.549 282.157 144.592C282.157 141.772 284.216 141.235 287.394 143.025C289.441 144.263 291.243 145.868 292.709 147.758L291.244 150.466C290.033 148.924 288.622 147.551 287.047 146.382Z" fill="#003399"/>
<path d="M163.531 156.744C168.072 151.167 170.357 144.092 169.937 136.913C169.517 129.734 166.421 122.974 161.261 117.965C156.101 112.957 149.251 110.064 142.063 109.858C134.875 109.652 127.871 112.147 122.432 116.851C116.994 121.556 113.516 128.127 112.684 135.27C111.853 142.413 113.729 149.608 117.942 155.436C122.155 161.263 128.399 165.3 135.443 166.75C142.486 168.2 149.817 166.957 155.989 163.268L169.999 169.355L163.531 156.744Z" fill="#003399"/>
<path opacity="0.4" d="M163.531 156.744C168.072 151.167 170.357 144.092 169.937 136.913C169.517 129.734 166.421 122.974 161.261 117.965C156.101 112.957 149.251 110.064 142.063 109.858C134.875 109.652 127.871 112.147 122.432 116.851C116.994 121.556 113.516 128.127 112.684 135.27C111.853 142.413 113.729 149.608 117.942 155.436C122.155 161.263 128.399 165.3 135.443 166.75C142.486 168.2 149.817 166.957 155.989 163.268L169.999 169.355L163.531 156.744Z" fill="black"/>
<path d="M130.588 137.049C130.588 136.613 130.275 136.367 129.704 136.367C128.38 136.54 127.144 137.123 126.168 138.034L124.579 134.946C126.251 133.687 128.272 132.976 130.364 132.909C133.05 132.909 135.086 134.319 135.086 136.423C135.086 137.922 133.967 139.366 132.535 140.809L130.532 142.79H135.265V146.08H125.094V143.383L129.626 138.694C130.114 138.263 130.451 137.686 130.588 137.049Z" fill="white"/>
<path d="M143.546 133.099L140.458 140.507H141.722V138.012H145.616V140.507H147.093V143.562H145.616V146.08H141.722V143.562H136.183V140.787L139.54 133.099H143.546Z" fill="white"/>
<path d="M159.111 139.623V146.08H154.949V140.82C154.973 140.649 154.96 140.475 154.91 140.309C154.861 140.143 154.777 139.99 154.664 139.859C154.55 139.729 154.41 139.624 154.253 139.553C154.095 139.481 153.924 139.444 153.751 139.444C152.934 139.444 152.42 140.082 152.42 141.066V146.08H148.257V132.361H152.42V137.407C152.745 136.893 153.199 136.471 153.737 136.185C154.274 135.899 154.877 135.757 155.486 135.774C155.985 135.761 156.481 135.853 156.941 136.045C157.402 136.237 157.817 136.524 158.159 136.888C158.501 137.251 158.763 137.682 158.927 138.154C159.091 138.625 159.154 139.126 159.111 139.623Z" fill="white"/>
<path d="M294.847 243.601V382.637C294.849 384.21 294.437 385.755 293.652 387.118C292.868 388.48 291.738 389.612 290.376 390.4C289.015 391.187 287.471 391.602 285.898 391.602C284.325 391.603 282.781 391.189 281.419 390.403L206.535 347.165L193.263 339.511C188.693 336.868 184.897 333.073 182.254 328.503C179.611 323.934 178.214 318.75 178.202 313.471V174.424C178.199 172.851 178.611 171.306 179.396 169.943C180.181 168.58 181.311 167.448 182.672 166.661C184.033 165.874 185.578 165.459 187.15 165.458C188.723 165.458 190.268 165.872 191.63 166.658L279.807 217.561C284.379 220.2 288.176 223.995 290.816 228.566C293.456 233.137 294.846 238.322 294.847 243.601Z" fill="#003399"/>
<path opacity="0.5" d="M294.847 243.601V382.637C294.849 384.21 294.437 385.755 293.652 387.118C292.868 388.48 291.738 389.612 290.376 390.4C289.015 391.187 287.471 391.602 285.898 391.602C284.325 391.603 282.781 391.189 281.419 390.403L206.535 347.165L193.263 339.511C188.693 336.868 184.897 333.073 182.254 328.503C179.611 323.934 178.214 318.75 178.202 313.471V174.424C178.199 172.851 178.611 171.306 179.396 169.943C180.181 168.58 181.311 167.448 182.672 166.661C184.033 165.874 185.578 165.459 187.15 165.458C188.723 165.458 190.268 165.872 191.63 166.658L279.807 217.561C284.379 220.2 288.176 223.995 290.816 228.566C293.456 233.137 294.846 238.322 294.847 243.601Z" fill="white"/>
<path d="M251.709 325.87C251.709 325.87 265.73 349.123 255.603 375.341L206.501 347.165L251.709 325.87Z" fill="#263238"/>
<path d="M274.07 221.397C275.131 212.779 269.005 204.932 260.387 203.871C251.769 202.81 243.923 208.936 242.861 217.554C241.8 226.172 247.926 234.018 256.544 235.079C265.162 236.141 273.008 230.015 274.07 221.397Z" fill="#263238"/>
<path d="M258.546 175.375C258.546 175.375 263.369 167.542 264.846 168.113C266.323 168.684 263.884 176.147 263.884 176.147C263.884 176.147 271.18 177.669 269.826 179.504C268.472 181.34 259.553 180.903 259.553 180.903L258.546 175.375Z" fill="#263238"/>
<path d="M261.903 195.562C258.546 220.785 237.285 220.785 237.285 220.785L192.749 201.18C192.749 201.18 189.392 198.237 188.362 191.478C187.967 188.709 187.967 185.899 188.362 183.13C188.362 183.13 188.362 183.074 188.362 183.052C189.783 172.444 197.717 161.041 214.994 157.538C218.781 156.774 222.635 156.399 226.498 156.419C228.367 156.413 230.234 156.506 232.093 156.699C245.521 158.02 254.932 164.286 259.419 174.033C260.428 176.232 261.179 178.542 261.657 180.915C262.568 185.748 262.651 190.701 261.903 195.562Z" fill="#263238"/>
<path d="M154.982 244.351C154.982 244.351 139.171 243.802 133.083 259.211C133.083 259.211 139.797 263.743 148.604 259.211C157.411 254.679 154.982 244.351 154.982 244.351Z" fill="#003399"/>
<path opacity="0.5" d="M154.982 244.351C154.982 244.351 139.171 243.802 133.083 259.211C133.083 259.211 139.797 263.743 148.604 259.211C157.411 254.679 154.982 244.351 154.982 244.351Z" fill="black"/>
<path d="M154.535 251.769C154.535 251.769 150.059 232.321 147.698 232.086C145.336 231.851 144.878 238.017 145.068 241.497L139.473 229.456C139.295 229.082 139.043 228.748 138.732 228.475C138.42 228.203 138.056 227.996 137.662 227.869C137.268 227.743 136.852 227.698 136.44 227.738C136.027 227.778 135.628 227.902 135.265 228.102C129.67 231.18 119.857 240.535 140.547 263.664L154.535 251.769Z" fill="#945959"/>
<path d="M211.828 238.319L208.471 237.883C205.088 237.434 201.646 237.894 198.499 239.216C195.353 240.537 192.615 242.673 190.567 245.402L170.592 271.99L154.926 244.35C154.926 244.35 153.046 263.15 133.027 259.211L154.523 295.388C155.884 297.679 157.777 299.606 160.043 301.008C162.308 302.409 164.879 303.242 167.536 303.437C170.192 303.631 172.857 303.181 175.302 302.125C177.748 301.068 179.902 299.437 181.581 297.369L199.977 274.754L211.828 238.319Z" fill="#003399"/>
<path d="M254.462 300.368C249.986 311.715 249.493 313.93 252.224 319.604C254.125 323.794 255.624 328.155 256.7 332.629C256.7 332.629 235.953 355.882 206.423 347.176L193.152 339.522C190.392 337.93 187.905 335.905 185.788 333.524L189.828 303.401C190.031 301.815 189.871 300.204 189.358 298.69L185.117 286.257C183.048 280.185 182.74 273.651 184.229 267.411C185.718 261.171 188.943 255.481 193.532 250.998L207.788 237.066L245.23 241.855L250.825 243.455C254.488 244.515 257.646 246.86 259.718 250.061C261.79 253.262 262.637 257.103 262.105 260.878C260.269 274.083 257.271 293.24 254.462 300.368Z" fill="#003399"/>
<path opacity="0.5" d="M254.462 300.368C249.986 311.715 249.493 313.93 252.224 319.604C254.125 323.794 255.624 328.155 256.7 332.629C256.7 332.629 235.953 355.882 206.423 347.176L193.152 339.522C190.392 337.93 187.905 335.905 185.788 333.524L189.828 303.401C190.031 301.815 189.871 300.204 189.358 298.69L185.117 286.257C183.048 280.185 182.74 273.651 184.229 267.411C185.718 261.171 188.943 255.481 193.532 250.998L207.788 237.066L245.23 241.855L250.825 243.455C254.488 244.515 257.646 246.86 259.718 250.061C261.79 253.262 262.637 257.103 262.105 260.878C260.269 274.083 257.271 293.24 254.462 300.368Z" fill="black"/>
<path d="M231.88 266.473L224.383 260.084C223.589 259.405 222.632 258.944 221.605 258.748C220.579 258.552 219.519 258.626 218.531 258.965L209.467 262.087L208.247 257.007C208.057 256.216 207.708 255.473 207.223 254.82C206.737 254.168 206.124 253.621 205.422 253.213C204.719 252.804 203.941 252.541 203.134 252.442C202.327 252.342 201.508 252.406 200.727 252.631L196.799 253.75L203.446 241.016C205.617 236.869 208.96 233.452 213.059 231.191L215.666 229.759L237.207 230.878C237.207 230.878 245.23 234.235 245.23 241.788L231.88 266.406" fill="#003399"/>
<path d="M237.296 240.423L215.699 257.253V203.663H237.296V240.423Z" fill="#945959"/>
<path d="M216.035 236.003L209.467 262.131L237.207 240.423L216.035 236.003Z" fill="#945959"/>
<path d="M215.699 232.12C220.502 230.337 224.892 227.596 228.602 224.064C232.313 220.532 235.267 216.283 237.285 211.575V203.663H215.688L215.699 232.12Z" fill="#703838"/>
<path d="M220.355 163.95C212.163 163.95 194.752 168.515 192.737 189.956C190.723 211.396 192.67 228.002 203.726 229.613C214.782 231.225 240.474 223.201 243.921 195.45C247.367 167.699 228.333 163.95 220.355 163.95Z" fill="#945959"/>
<path d="M207.464 199.031V211.664L200.056 209.393L207.464 199.031Z" fill="#703838"/>
<path d="M215.699 203.787C217.121 203.787 218.273 202.634 218.273 201.213C218.273 199.791 217.121 198.639 215.699 198.639C214.278 198.639 213.126 199.791 213.126 201.213C213.126 202.634 214.278 203.787 215.699 203.787Z" fill="#263238"/>
<path d="M201.331 199.423C201.329 199.931 201.176 200.428 200.892 200.849C200.608 201.271 200.205 201.599 199.735 201.792C199.264 201.985 198.747 202.035 198.249 201.934C197.75 201.834 197.293 201.588 196.934 201.227C196.575 200.867 196.331 200.408 196.233 199.909C196.134 199.41 196.186 198.893 196.381 198.424C196.576 197.954 196.906 197.553 197.329 197.271C197.752 196.988 198.249 196.838 198.758 196.838C199.097 196.838 199.432 196.905 199.745 197.035C200.058 197.165 200.342 197.355 200.582 197.595C200.821 197.836 201.01 198.121 201.139 198.434C201.267 198.748 201.333 199.084 201.331 199.423Z" fill="#263238"/>
<path d="M195.613 194.051L200.649 191.063C200.649 191.063 198.724 189.06 196.799 190.258C194.875 191.455 195.613 194.051 195.613 194.051Z" fill="#263238"/>
<path d="M203.983 216.79C206.436 216.969 208.876 216.314 210.91 214.932C210.91 214.932 211.391 218.591 208.325 219.285C205.259 219.979 203.983 216.79 203.983 216.79Z" fill="#703838"/>
<path d="M199.586 171.246C199.586 171.246 202.663 200.844 242.914 201.772C242.914 201.772 255.077 172.354 231.041 162.797C207.005 153.241 199.586 171.246 199.586 171.246Z" fill="#263238"/>
<path d="M254.764 197.341L249.818 194.476C247.938 193.357 245.342 193.514 242.466 195.17C236.759 198.46 232.126 206.483 232.126 213.074C232.126 216.375 233.245 218.669 235.17 219.788L240.027 222.586L240.306 222.742L240.474 222.843C242.309 223.738 244.76 223.526 247.457 221.97C253.164 218.613 257.796 210.657 257.796 204.066C257.763 200.732 256.61 198.426 254.764 197.341Z" fill="#003399"/>
<path d="M254.725 214.196C258.76 207.206 258.76 199.651 254.725 197.321C250.689 194.991 244.147 198.769 240.111 205.759C236.075 212.748 236.075 220.304 240.111 222.633C244.146 224.963 250.689 221.186 254.725 214.196Z" fill="#003399"/>
<path opacity="0.5" d="M254.725 214.196C258.76 207.206 258.76 199.651 254.725 197.321C250.689 194.991 244.147 198.769 240.111 205.759C236.075 212.748 236.075 220.304 240.111 222.633C244.146 224.963 250.689 221.186 254.725 214.196Z" fill="black"/>
<path d="M256.745 203.552L253.388 201.593C252.112 200.833 250.333 200.933 248.363 202.063C246.306 203.408 244.594 205.218 243.365 207.346C242.137 209.475 241.426 211.863 241.291 214.317C241.291 216.555 242.086 218.155 243.372 218.893L246.729 220.807C246.789 220.85 246.853 220.888 246.92 220.919L247.032 220.986C247.818 221.284 248.667 221.385 249.501 221.28C250.336 221.175 251.133 220.866 251.821 220.382C253.877 219.038 255.588 217.23 256.816 215.104C258.045 212.977 258.756 210.592 258.893 208.14C258.804 205.868 258.02 204.29 256.745 203.552Z" fill="#003399"/>
<path d="M258.804 208.117C258.667 210.569 257.955 212.955 256.727 215.081C255.498 217.208 253.787 219.016 251.731 220.359C247.815 222.597 244.648 220.784 244.648 216.275C244.781 213.82 245.492 211.432 246.723 209.305C247.954 207.177 249.67 205.371 251.731 204.033C255.637 201.772 258.804 203.596 258.804 208.117Z" fill="#003399"/>
<path opacity="0.3" d="M258.804 208.117C258.667 210.569 257.955 212.955 256.727 215.081C255.498 217.208 253.787 219.016 251.731 220.359C247.815 222.597 244.648 220.784 244.648 216.275C244.781 213.82 245.492 211.432 246.723 209.305C247.954 207.177 249.67 205.371 251.731 204.033C255.637 201.772 258.804 203.596 258.804 208.117Z" fill="black"/>
<path d="M239.4 158.176C236.192 155.698 232.263 154.335 228.21 154.293H227.214C223.11 154.249 219.012 154.624 214.983 155.412C215.722 155.412 216.46 155.412 217.221 155.412H214.983V157.493H217.065C224.238 157.737 231.035 160.761 236.02 165.925C241.004 171.089 243.785 177.989 243.775 185.166V193.973C243.775 194.321 243.848 194.665 243.989 194.984C244.13 195.302 244.337 195.587 244.596 195.82C244.854 196.053 245.159 196.229 245.49 196.337C245.821 196.445 246.171 196.482 246.517 196.446H246.774L249.012 195.752C248.863 195.799 248.709 195.829 248.553 195.842C249.221 195.751 249.831 195.418 250.269 194.906C250.706 194.395 250.94 193.74 250.926 193.067V184.898C250.903 170.116 244.514 162.171 239.4 158.176Z" fill="#003399"/>
<path d="M225.312 228.998C224.389 228.998 223.477 228.8 222.637 228.416L215.644 225.182C215.534 225.143 215.434 225.082 215.35 225.002C215.265 224.922 215.198 224.826 215.153 224.719C215.108 224.612 215.085 224.497 215.087 224.38C215.088 224.264 215.114 224.15 215.162 224.044C215.211 223.938 215.28 223.844 215.367 223.766C215.453 223.689 215.555 223.63 215.666 223.594C215.776 223.558 215.893 223.546 216.008 223.557C216.124 223.568 216.236 223.604 216.337 223.661L223.331 226.894C224.223 227.309 225.222 227.435 226.189 227.255C227.156 227.074 228.043 226.596 228.725 225.887L235.439 218.95C235.596 218.792 235.809 218.704 236.032 218.704C236.254 218.704 236.468 218.792 236.625 218.95C236.779 219.108 236.866 219.321 236.866 219.543C236.866 219.764 236.779 219.977 236.625 220.136L229.911 227.074C229.313 227.687 228.598 228.174 227.807 228.505C227.017 228.835 226.168 229.003 225.312 228.998Z" fill="#003399"/>
<path opacity="0.5" d="M225.312 228.998C224.389 228.998 223.477 228.8 222.637 228.416L215.644 225.182C215.534 225.143 215.434 225.082 215.35 225.002C215.265 224.922 215.198 224.826 215.153 224.719C215.108 224.612 215.085 224.497 215.087 224.38C215.088 224.264 215.114 224.15 215.162 224.044C215.211 223.938 215.28 223.844 215.367 223.766C215.453 223.689 215.555 223.63 215.666 223.594C215.776 223.558 215.893 223.546 216.008 223.557C216.124 223.568 216.236 223.604 216.337 223.661L223.331 226.894C224.223 227.309 225.222 227.435 226.189 227.255C227.156 227.074 228.043 226.596 228.725 225.887L235.439 218.95C235.596 218.792 235.809 218.704 236.032 218.704C236.254 218.704 236.468 218.792 236.625 218.95C236.779 219.108 236.866 219.321 236.866 219.543C236.866 219.764 236.779 219.977 236.625 220.136L229.911 227.074C229.313 227.687 228.598 228.174 227.807 228.505C227.017 228.835 226.168 229.003 225.312 228.998Z" fill="black"/>
<path d="M217.479 222.832C217.479 223.478 217.287 224.11 216.928 224.648C216.569 225.185 216.059 225.604 215.462 225.851C214.865 226.098 214.208 226.163 213.574 226.037C212.94 225.911 212.358 225.6 211.901 225.143C211.444 224.686 211.133 224.103 211.006 223.47C210.88 222.836 210.945 222.179 211.192 221.582C211.44 220.985 211.858 220.474 212.396 220.115C212.933 219.756 213.565 219.565 214.211 219.565C215.078 219.565 215.909 219.909 216.522 220.522C217.134 221.134 217.479 221.966 217.479 222.832Z" fill="#003399"/>
<path opacity="0.5" d="M217.479 222.832C217.479 223.478 217.287 224.11 216.928 224.648C216.569 225.185 216.059 225.604 215.462 225.851C214.865 226.098 214.208 226.163 213.574 226.037C212.94 225.911 212.358 225.6 211.901 225.143C211.444 224.686 211.133 224.103 211.006 223.47C210.88 222.836 210.945 222.179 211.192 221.582C211.44 220.985 211.858 220.474 212.396 220.115C212.933 219.756 213.565 219.565 214.211 219.565C215.078 219.565 215.909 219.909 216.522 220.522C217.134 221.134 217.479 221.966 217.479 222.832Z" fill="black"/>
<path d="M250.903 184.898V193.067C250.918 193.74 250.684 194.395 250.246 194.907C249.809 195.418 249.198 195.751 248.531 195.842C248.162 195.881 247.79 195.842 247.437 195.728C247.084 195.614 246.76 195.427 246.484 195.178C246.209 194.93 245.989 194.627 245.838 194.288C245.688 193.95 245.61 193.583 245.611 193.212V184.898C245.617 180.93 244.82 177.002 243.269 173.349C241.718 169.697 239.443 166.397 236.583 163.646C233.723 160.896 230.336 158.752 226.626 157.345C222.916 155.938 218.959 155.295 214.995 155.457C219.023 154.669 223.121 154.294 227.225 154.338H228.199C232.252 154.38 236.181 155.743 239.389 158.221C244.514 162.171 250.903 170.116 250.903 184.898Z" fill="#003399"/>
<path opacity="0.5" d="M250.903 184.898V193.067C250.918 193.74 250.684 194.395 250.246 194.907C249.809 195.418 249.198 195.751 248.531 195.842C248.162 195.881 247.79 195.842 247.437 195.728C247.084 195.614 246.76 195.427 246.484 195.178C246.209 194.93 245.989 194.627 245.838 194.288C245.688 193.95 245.61 193.583 245.611 193.212V184.898C245.617 180.93 244.82 177.002 243.269 173.349C241.718 169.697 239.443 166.397 236.583 163.646C233.723 160.896 230.336 158.752 226.626 157.345C222.916 155.938 218.959 155.295 214.995 155.457C219.023 154.669 223.121 154.294 227.225 154.338H228.199C232.252 154.38 236.181 155.743 239.389 158.221C244.514 162.171 250.903 170.116 250.903 184.898Z" fill="black"/>
<path d="M238.326 338.839C238.326 338.839 232.91 353.756 252.269 360.47C252.269 360.47 258.591 351.182 252.269 343.584C245.946 335.986 238.326 338.839 238.326 338.839Z" fill="#003399"/>
<path opacity="0.7" d="M238.326 338.839C238.326 338.839 232.91 353.756 252.269 360.47C252.269 360.47 258.591 351.182 252.269 343.584C245.946 335.986 238.326 338.839 238.326 338.839Z" fill="black"/>
<path d="M245.118 339.522C245.118 339.522 226.207 346.448 226.308 349.134C226.408 351.82 234.342 349.984 234.342 349.984L231.444 351.887C228.392 353.878 226.028 356.762 224.674 360.145C224.379 360.891 224.368 361.72 224.645 362.473C224.921 363.226 225.466 363.851 226.173 364.229L233.357 368.034C233.763 368.249 234.208 368.381 234.665 368.421C235.123 368.462 235.584 368.41 236.021 368.269C236.458 368.128 236.862 367.901 237.21 367.601C237.558 367.301 237.842 366.935 238.046 366.523C238.447 365.732 239 365.028 239.674 364.452C240.348 363.876 241.13 363.439 241.974 363.166C245.879 361.868 253.164 358.131 256.084 347.903L245.118 339.522Z" fill="#945959"/>
<path d="M250.791 243.433C250.791 243.433 240.72 249.028 246.069 266.014C251.418 283.001 261.456 309.353 261.456 309.353L238.326 338.839C240.797 339.137 243.177 339.953 245.312 341.233C247.446 342.514 249.287 344.23 250.713 346.269C252.08 348.344 252.933 350.713 253.204 353.182C253.474 355.651 253.154 358.149 252.269 360.47L280.982 323.542C283.638 320.13 285.401 316.109 286.112 311.844C286.823 307.579 286.46 303.204 285.055 299.115L272.746 263.172C271.242 258.782 268.741 254.799 265.441 251.536C262.141 248.272 258.13 245.817 253.723 244.362L250.791 243.433Z" fill="#003399"/>
<path d="M80.7922 143.092L36.2894 117.355C35.7772 117 35.1847 116.778 34.5654 116.71C33.946 116.641 33.3194 116.728 32.7421 116.963C32.6205 117.019 32.5043 117.087 32.3952 117.164L22.7158 122.838H22.783C21.5633 123.532 20.7912 125.143 20.7912 127.448V176.953C20.7912 181.138 23.3313 186.006 26.4757 187.818L70.9785 213.556C71.5432 213.964 72.2154 214.198 72.9116 214.227C73.6079 214.257 74.2975 214.082 74.8951 213.723C74.8648 213.735 74.8379 213.755 74.8167 213.779L84.429 208.184C85.6823 207.513 86.4768 205.879 86.4768 203.54V153.957C86.4768 149.772 83.9814 144.905 80.7922 143.092Z" fill="#003399"/>
<path d="M84.8878 147.78C83.9874 145.866 82.5686 144.241 80.7922 143.092L36.2894 117.355C35.7772 117 35.1847 116.778 34.5653 116.71C33.946 116.641 33.3194 116.728 32.7421 116.963C32.6205 117.019 32.5043 117.087 32.3952 117.164L22.7158 122.838C23.3079 122.535 23.9719 122.401 24.635 122.451C25.2981 122.5 25.9349 122.731 26.4757 123.118L70.9785 148.855C72.8154 150.056 74.2712 151.756 75.1748 153.756L84.8878 147.78Z" fill="#003399"/>
<path d="M76.6631 209.203C76.6631 211.441 75.9469 212.996 74.8167 213.679L84.429 208.084C85.6823 207.412 86.4767 205.779 86.4767 203.44V153.957C86.4294 151.804 85.8857 149.69 84.8878 147.781L75.1748 153.756C76.1074 155.609 76.6158 157.646 76.6631 159.72V209.203Z" fill="#003399"/>
<path opacity="0.3" d="M84.8878 147.78C83.9874 145.866 82.5686 144.241 80.7922 143.092L36.2894 117.355C35.7772 117 35.1847 116.778 34.5653 116.71C33.946 116.641 33.3194 116.728 32.7421 116.963C32.6205 117.019 32.5043 117.087 32.3952 117.164L22.7158 122.838C23.3079 122.535 23.9719 122.401 24.635 122.451C25.2981 122.5 25.9349 122.731 26.4757 123.118L70.9785 148.855C72.8154 150.056 74.2712 151.756 75.1748 153.756L84.8878 147.78Z" fill="black"/>
<path opacity="0.6" d="M76.6631 209.203C76.6631 211.441 75.9469 212.996 74.8167 213.679L84.429 208.084C85.6823 207.412 86.4767 205.779 86.4767 203.44V153.957C86.4294 151.804 85.8857 149.69 84.8878 147.781L75.1748 153.756C76.1074 155.609 76.6158 157.646 76.6631 159.72V209.203Z" fill="black"/>
<path d="M63.6155 173.898C63.6155 180.31 61.0753 182.492 57.2707 180.288C56.2212 179.69 55.3034 178.886 54.5726 177.925C53.8419 176.963 53.3132 175.864 53.0185 174.693C51.8995 176.069 50.165 176.159 47.7256 174.749C43.7195 172.432 40.5639 166.916 40.5639 161.556C40.5639 156.195 43.686 154.349 47.7256 156.677C49.7754 157.885 51.4312 159.661 52.4925 161.791V159.676L56.7112 162.115V173.708C56.6484 174.318 56.7539 174.934 57.0163 175.488C57.2786 176.042 57.6878 176.514 58.1995 176.852C59.6206 177.68 60.4934 176.282 60.4934 172.13C60.4934 164.868 55.8384 157.169 48.9565 153.197C42.0746 149.224 37.4307 151.988 37.4307 159.463C37.5209 163.429 38.6138 167.308 40.6077 170.738C42.6015 174.168 45.4314 177.038 48.8334 179.079C50.6806 180.217 52.7782 180.885 54.9432 181.026L55.9391 184.887C53.4182 184.683 50.9823 183.882 48.8334 182.548C39.8814 177.367 33.9618 166.938 33.9618 157.494C33.9618 148.049 39.9373 144.625 48.9565 149.84C57.6735 154.864 63.6155 164.924 63.6155 173.898ZM52.5597 168.516C52.5815 167.097 52.2352 165.696 51.5547 164.451C50.8742 163.206 49.8827 162.158 48.6767 161.41C46.4387 160.101 44.8385 161.018 44.8385 164.062C44.8098 165.483 45.1479 166.888 45.8202 168.141C46.4925 169.393 47.4763 170.451 48.6767 171.213C50.9147 172.477 52.5597 171.66 52.5597 168.516Z" fill="#003399"/>
<g opacity="0.9">
<path d="M63.6155 173.898C63.6155 180.31 61.0753 182.492 57.2707 180.288C56.2212 179.69 55.3034 178.886 54.5726 177.925C53.8419 176.963 53.3132 175.864 53.0185 174.693C51.8995 176.069 50.165 176.159 47.7256 174.749C43.7195 172.432 40.5639 166.916 40.5639 161.556C40.5639 156.195 43.686 154.349 47.7256 156.677C49.7754 157.885 51.4312 159.661 52.4925 161.791V159.676L56.7112 162.115V173.708C56.6484 174.318 56.7539 174.934 57.0163 175.488C57.2786 176.042 57.6878 176.514 58.1995 176.852C59.6206 177.68 60.4934 176.282 60.4934 172.13C60.4934 164.868 55.8384 157.169 48.9565 153.197C42.0746 149.224 37.4307 151.988 37.4307 159.463C37.5209 163.429 38.6138 167.308 40.6077 170.738C42.6015 174.168 45.4314 177.038 48.8334 179.079C50.6806 180.217 52.7782 180.885 54.9432 181.026L55.9391 184.887C53.4182 184.683 50.9823 183.882 48.8334 182.548C39.8814 177.367 33.9618 166.938 33.9618 157.494C33.9618 148.049 39.9373 144.625 48.9565 149.84C57.6735 154.864 63.6155 164.924 63.6155 173.898ZM52.5597 168.516C52.5815 167.097 52.2352 165.696 51.5547 164.451C50.8742 163.206 49.8827 162.158 48.6767 161.41C46.4387 160.101 44.8385 161.018 44.8385 164.062C44.8098 165.483 45.1479 166.888 45.8202 168.141C46.4925 169.393 47.4763 170.451 48.6767 171.213C50.9147 172.477 52.5597 171.66 52.5597 168.516Z" fill="white"/>
</g>
<path d="M80.7922 231.247L36.2894 205.51C35.778 205.153 35.1847 204.931 34.5646 204.865C33.9445 204.798 33.3176 204.889 32.7421 205.13C32.6205 205.186 32.5043 205.253 32.3952 205.331L22.7158 211.004H22.783C21.5633 211.698 20.7912 213.31 20.7912 215.604V265.086C20.7912 269.282 23.3313 274.139 26.4757 275.951L70.9785 301.689C71.542 302.1 72.2145 302.335 72.9114 302.365C73.6083 302.395 74.2985 302.218 74.8951 301.856L74.8167 301.924L84.429 296.273C85.6823 295.612 86.4768 294.035 86.4768 291.629V242.102C86.4768 237.916 83.9814 233.06 80.7922 231.247Z" fill="#003399"/>
<path d="M84.8878 235.936C83.9905 234.019 82.571 232.394 80.7922 231.247L36.2894 205.51C35.7779 205.153 35.1847 204.931 34.5646 204.865C33.9445 204.798 33.3176 204.889 32.7421 205.13C32.6205 205.186 32.5043 205.253 32.3952 205.331L22.7158 211.004C23.3066 210.699 23.9702 210.562 24.6335 210.61C25.2969 210.657 25.9344 210.887 26.4757 211.273L70.9785 237.01C72.8183 238.213 74.2746 239.917 75.1748 241.923L84.8878 235.936Z" fill="#003399"/>
<path d="M76.6631 297.347C76.6631 299.585 75.9469 301.14 74.8167 301.879L84.429 296.228C85.6823 295.568 86.4767 293.99 86.4767 291.584V242.102C86.4293 239.951 85.8855 237.841 84.8878 235.936L75.1748 241.911C76.1072 243.76 76.6156 245.794 76.6631 247.864V297.347Z" fill="#003399"/>
<path opacity="0.3" d="M84.8878 235.936C83.9905 234.019 82.571 232.394 80.7922 231.247L36.2894 205.51C35.7779 205.153 35.1847 204.931 34.5646 204.865C33.9445 204.798 33.3176 204.889 32.7421 205.13C32.6205 205.186 32.5043 205.253 32.3952 205.331L22.7158 211.004C23.3066 210.699 23.9702 210.562 24.6335 210.61C25.2969 210.657 25.9344 210.887 26.4757 211.273L70.9785 237.01C72.8183 238.213 74.2746 239.917 75.1748 241.923L84.8878 235.936Z" fill="black"/>
<path opacity="0.6" d="M76.6631 297.347C76.6631 299.585 75.9469 301.14 74.8167 301.879L84.429 296.228C85.6823 295.568 86.4767 293.99 86.4767 291.584V242.102C86.4293 239.951 85.8855 237.841 84.8878 235.936L75.1748 241.911C76.1072 243.76 76.6156 245.794 76.6631 247.864V297.347Z" fill="black"/>
<path d="M43.7532 253.37L33.0219 235.936V259.558L43.7532 253.37Z" fill="#003399"/>
<path d="M53.7235 258.394L64.4324 276.936V253.348L53.7235 258.394Z" fill="#003399"/>
<path d="M34.6444 235.141L45.6666 253.045C45.7133 253.085 45.7547 253.13 45.7897 253.18C45.7994 253.224 45.7994 253.27 45.7897 253.314L49.0684 258.64L51.8435 257.331C51.8868 257.284 51.9356 257.243 51.989 257.208C52.0984 257.144 52.2208 257.106 52.3471 257.096L63.5371 251.848L34.6444 235.141Z" fill="#003399"/>
<path d="M52.1009 259.155L49.102 260.565C48.9864 260.619 48.8602 260.646 48.7327 260.643C48.5783 260.645 48.426 260.607 48.2907 260.532C48.1554 260.458 48.0417 260.35 47.9606 260.218L44.6819 254.892L33.9171 261.113L62.8881 277.831L52.1009 259.155Z" fill="#003399"/>
<g opacity="0.9">
<path d="M43.7532 253.37L33.0219 235.936V259.558L43.7532 253.37Z" fill="white"/>
<path d="M53.7235 258.394L64.4324 276.936V253.348L53.7235 258.394Z" fill="white"/>
<path d="M34.6444 235.141L45.6666 253.045C45.7133 253.085 45.7547 253.13 45.7897 253.18C45.7994 253.224 45.7994 253.27 45.7897 253.314L49.0684 258.64L51.8435 257.331C51.8868 257.284 51.9356 257.243 51.989 257.208C52.0984 257.144 52.2208 257.106 52.3471 257.096L63.5371 251.848L34.6444 235.141Z" fill="white"/>
<path d="M52.1009 259.155L49.102 260.565C48.9864 260.619 48.8602 260.646 48.7327 260.643C48.5783 260.645 48.426 260.607 48.2907 260.532C48.1554 260.458 48.0417 260.35 47.9606 260.218L44.6819 254.892L33.9171 261.113L62.8881 277.831L52.1009 259.155Z" fill="white"/>
</g>
<path d="M80.7922 54.9813L36.2894 29.2442C35.778 28.8873 35.1847 28.6653 34.5646 28.5988C33.9445 28.5323 33.3176 28.6234 32.7421 28.8638C32.6205 28.9199 32.5043 28.9874 32.3952 29.0652L22.7158 34.7385H22.783C21.5633 35.4211 20.7912 37.0437 20.7912 39.3376V88.8201C20.7912 93.0051 23.3313 97.8728 26.4757 99.6856L70.9785 125.423C71.542 125.834 72.2145 126.069 72.9114 126.099C73.6083 126.129 74.2985 125.952 74.8951 125.591L74.8167 125.647L84.429 120.051C85.6823 119.391 86.4768 117.813 86.4768 115.408V65.8021C86.4768 61.617 83.9814 56.7494 80.7922 54.9813Z" fill="#003399"/>
<path d="M84.8878 59.6364C83.9907 57.7165 82.5714 56.0878 80.7922 54.9366L36.2894 29.2442C35.7779 28.8873 35.1847 28.6653 34.5646 28.5988C33.9445 28.5323 33.3176 28.6234 32.7421 28.8638C32.6205 28.9199 32.5043 28.9874 32.3952 29.0652L22.7158 34.7385C23.3066 34.433 23.9702 34.2965 24.6335 34.3439C25.2969 34.3912 25.9344 34.6207 26.4757 35.0071L70.9785 60.7442C72.8183 61.9467 74.2746 63.6516 75.1748 65.6566L84.8878 59.6364Z" fill="#003399"/>
<path d="M76.6631 121.002C76.6631 123.24 75.9469 124.796 74.8167 125.479L84.429 119.883C85.6823 119.223 86.4767 117.645 86.4767 115.24V65.8019C86.4293 63.6517 85.8855 61.5415 84.8878 59.6362L75.1748 65.6117C76.1072 67.4608 76.6156 69.4945 76.6631 71.5648V121.002Z" fill="#003399"/>
<path opacity="0.3" d="M84.8878 59.6364C83.9907 57.7165 82.5714 56.0878 80.7922 54.9366L36.2894 29.2442C35.7779 28.8873 35.1847 28.6653 34.5646 28.5988C33.9445 28.5323 33.3176 28.6234 32.7421 28.8638C32.6205 28.9199 32.5043 28.9874 32.3952 29.0652L22.7158 34.7385C23.3066 34.433 23.9702 34.2965 24.6335 34.3439C25.2969 34.3912 25.9344 34.6207 26.4757 35.0071L70.9785 60.7442C72.8183 61.9467 74.2746 63.6516 75.1748 65.6566L84.8878 59.6364Z" fill="black"/>
<path opacity="0.6" d="M76.6631 121.002C76.6631 123.24 75.9469 124.796 74.8167 125.479L84.429 119.883C85.6823 119.223 86.4767 117.645 86.4767 115.24V65.8019C86.4293 63.6517 85.8855 61.5415 84.8878 59.6362L75.1748 65.6117C76.1072 67.4608 76.6156 69.4945 76.6631 71.5648V121.002Z" fill="black"/>
<path d="M62.1048 99.7416C60.3927 96.9217 58.6695 94.1465 56.9574 91.3043C56.6858 90.7659 56.3062 90.2893 55.8422 89.9043C55.3782 89.5192 54.8398 89.2339 54.2606 89.0663C53.4325 88.8984 52.6045 88.7082 51.754 88.462C51.4511 88.3357 51.1964 88.1162 51.0267 87.8354C48.2251 83.0406 45.9979 77.9326 44.391 72.6169C44.3568 72.5033 44.3471 72.3837 44.3625 72.266C44.3779 72.1483 44.4181 72.0353 44.4805 71.9343C45.0064 71.4084 45.5995 70.9272 46.1366 70.4572C46.6737 69.9872 46.9535 68.9018 46.5618 67.4918C45.7338 64.5041 44.9393 61.5164 44.1112 58.5398C43.951 57.6941 43.5708 56.9054 43.009 56.2533C42.4472 55.6011 41.7236 55.1084 40.9109 54.8247C39.1063 54.323 37.1906 54.3934 35.4277 55.0261C34.7451 55.2835 34.387 55.8989 34.3759 56.962C34.6668 59.0098 34.857 61.0352 35.2487 63.1165C38.0089 78.1261 44.6483 91.9272 55.167 104.52C55.4416 104.937 55.8105 105.285 56.244 105.533C56.6774 105.782 57.1633 105.926 57.6624 105.952C59.4038 105.911 61.0768 105.266 62.3957 104.128C63.3917 103.233 63.291 101.644 62.1048 99.7416Z" fill="#003399"/>
<path d="M61.9706 84.4895C61.7365 81.2709 60.8494 78.1336 59.3633 75.2689C58.2538 73.0311 56.8418 70.9564 55.167 69.1032C54.7306 68.6109 54.3614 68.4542 54.1376 68.8235C53.9137 69.1927 54.1375 69.7187 54.5628 70.1998L54.9992 70.7034C58.0921 74.2736 60.0413 78.6906 60.5942 83.3817C60.5887 83.7239 60.6225 84.0655 60.6949 84.4C60.8355 84.7848 61.0612 85.1329 61.3551 85.4183C61.5901 85.5862 61.8587 85.4183 62.0489 85.4183C61.9818 84.9595 61.993 84.7245 61.9706 84.4895Z" fill="#003399"/>
<path d="M51.8324 75.3025C53.2376 76.8481 54.0914 78.8155 54.2606 80.8975C54.3343 81.2141 54.451 81.519 54.6075 81.8039C55.2901 82.3634 55.6258 82.1732 55.6258 81.4682C55.3865 78.7987 54.2825 76.2802 52.4814 74.2954C52.0562 73.859 51.7093 73.7247 51.5079 74.094C51.4354 74.3048 51.4276 74.5325 51.4854 74.7478C51.5432 74.9631 51.664 75.1563 51.8324 75.3025Z" fill="#003399"/>
<g opacity="0.9">
<path d="M62.1048 99.7416C60.3927 96.9217 58.6695 94.1465 56.9574 91.3043C56.6858 90.7659 56.3062 90.2893 55.8422 89.9043C55.3782 89.5192 54.8398 89.2339 54.2606 89.0663C53.4325 88.8984 52.6045 88.7082 51.754 88.462C51.4511 88.3357 51.1964 88.1162 51.0267 87.8354C48.2251 83.0406 45.9979 77.9326 44.391 72.6169C44.3568 72.5033 44.3471 72.3837 44.3625 72.266C44.3779 72.1483 44.4181 72.0353 44.4805 71.9343C45.0064 71.4084 45.5995 70.9272 46.1366 70.4572C46.6737 69.9872 46.9535 68.9018 46.5618 67.4918C45.7338 64.5041 44.9393 61.5164 44.1112 58.5398C43.951 57.6941 43.5708 56.9054 43.009 56.2533C42.4472 55.6011 41.7236 55.1084 40.9109 54.8247C39.1063 54.323 37.1906 54.3934 35.4277 55.0261C34.7451 55.2835 34.387 55.8989 34.3759 56.962C34.6668 59.0098 34.857 61.0352 35.2487 63.1165C38.0089 78.1261 44.6483 91.9272 55.167 104.52C55.4416 104.937 55.8105 105.285 56.244 105.533C56.6774 105.782 57.1633 105.926 57.6624 105.952C59.4038 105.911 61.0768 105.266 62.3957 104.128C63.3917 103.233 63.291 101.644 62.1048 99.7416Z" fill="white"/>
<path d="M61.9705 84.4895C61.7364 81.2709 60.8493 78.1336 59.3632 75.2689C58.2537 73.0311 56.8417 70.9564 55.1669 69.1032C54.7305 68.6109 54.3613 68.4542 54.1375 68.8235C53.9137 69.1927 54.1375 69.7187 54.5627 70.1998L54.9991 70.7034C58.092 74.2736 60.0412 78.6906 60.5941 83.3817C60.5887 83.7239 60.6224 84.0655 60.6948 84.4C60.8354 84.7848 61.0611 85.1329 61.355 85.4183C61.59 85.5862 61.8586 85.4183 62.0488 85.4183C61.9817 84.9595 61.9929 84.7245 61.9705 84.4895Z" fill="white"/>
<path d="M51.8323 75.3025C53.2375 76.8481 54.0914 78.8155 54.2605 80.8975C54.3342 81.2141 54.451 81.519 54.6074 81.8039C55.29 82.3634 55.6257 82.1732 55.6257 81.4682C55.3865 78.7987 54.2824 76.2802 52.4813 74.2954C52.0561 73.859 51.7092 73.7247 51.5078 74.094C51.4353 74.3048 51.4275 74.5325 51.4853 74.7478C51.5432 74.9631 51.664 75.1563 51.8323 75.3025Z" fill="white"/>
</g>
<path d="M309.125 25.3056L319.61 31.2699V27.5549C319.61 27.2975 319.61 27.0289 319.61 26.7715C319.61 26.5142 319.61 26.268 319.61 26.0218V25.8875C319.991 20.9751 323.717 19.084 328.26 21.7136C330.317 22.9787 332.08 24.6689 333.43 26.6708C334.448 19.9568 339.898 17.5845 346.489 21.3779C353.807 25.6078 359.738 35.925 359.738 44.3399V52.2849C359.727 52.9204 359.884 53.5475 360.193 54.1033C360.501 54.6591 360.95 55.1241 361.495 55.4516L367.672 59.066C369.005 59.8564 370.11 60.9793 370.879 62.3249C371.648 63.6705 372.054 65.1926 372.058 66.7424C372.058 67.3854 371.889 68.017 371.567 68.5738C371.246 69.1305 370.783 69.5927 370.226 69.9138C369.669 70.2348 369.037 70.4035 368.394 70.4027C367.751 70.4019 367.12 70.2317 366.564 69.9092L309.282 36.7978C307.762 35.9153 306.5 34.6505 305.621 33.1292C304.741 31.6078 304.275 29.8828 304.269 28.1255C304.268 27.5567 304.417 26.9978 304.701 26.5047C304.984 26.0116 305.392 25.6017 305.884 25.3161C306.376 25.0305 306.935 24.8792 307.503 24.8773C308.072 24.8755 308.632 25.0232 309.125 25.3056Z" fill="#CCD6EB"/>
<path d="M389.056 23.7501L396.676 28.1254V25.395C396.676 25.2048 396.676 25.0146 396.676 24.8243C396.676 24.6341 396.676 24.4551 396.676 24.276V24.2089C396.956 20.6393 399.664 19.2629 402.965 21.1764C404.46 22.0923 405.742 23.317 406.725 24.7684C407.475 19.9119 411.436 18.1551 416.225 20.919C421.552 23.9963 425.86 31.4712 425.86 37.6146V43.3998C425.864 43.8533 425.986 44.298 426.213 44.6903C426.441 45.0827 426.766 45.4091 427.158 45.6378L431.634 48.2675C432.608 48.8403 433.415 49.6582 433.974 50.6399C434.534 51.6215 434.827 52.7326 434.823 53.8625C434.822 54.3253 434.701 54.7799 434.471 55.1815C434.241 55.5832 433.911 55.9179 433.512 56.1529C433.113 56.3878 432.66 56.5148 432.197 56.5213C431.735 56.5278 431.278 56.4137 430.873 56.1901L389.168 32.1091C388.063 31.4697 387.145 30.5512 386.507 29.4455C385.868 28.3398 385.532 27.0858 385.531 25.8091C385.53 25.3958 385.638 24.9897 385.843 24.6311C386.049 24.2725 386.344 23.9741 386.701 23.7657C387.058 23.5573 387.463 23.4461 387.876 23.4434C388.29 23.4407 388.696 23.5464 389.056 23.7501Z" fill="#CCD6EB"/>
</svg>
